<?xml version="1.0" encoding="UTF-8" standalone="no"?><!DOCTYPE svg PUBLIC "-//W3C//DTD SVG 1.1//EN" "http://www.w3.org/Graphics/SVG/1.1/DTD/svg11.dtd"><svg width="100%" height="100%" viewBox="0 0 2000 2000" version="1.1" xmlns="http://www.w3.org/2000/svg" xmlns:xlink="http://www.w3.org/1999/xlink" xml:space="preserve" xmlns:serif="http://www.serif.com/" style="fill-rule:evenodd;clip-rule:evenodd;stroke-linejoin:round;stroke-miterlimit:2;"><path d="M924,871.511c2.356,-16.893 44.274,-48.682 53.393,-54.644c65.911,-43.091 130.409,-41.63 192.607,-41.533l0,215.666c0.627,112.221 -35.031,200.636 -102,289c-50.562,57.073 -109.123,91.485 -174,108c-59.77,15.425 -124.687,18.842 -194,12c-82.575,-8.942 -156.921,-42.572 -222,-104c-70.27,-70.033 -107.965,-169.756 -117,-305l0,-492c56.733,-0.547 106.537,10.629 145,41c50.554,36.192 89.81,101.305 101,186l0,264c5.819,91.604 27.491,135.94 70,166c45.785,35.186 108.775,41.603 167,8c39.384,-27.196 70.699,-70.784 80,-174l0,-118.489Z" style="fill:#262729;"/><path d="M1170,726c0,0 -92.843,2.344 -117.433,10.807c-10.62,3.655 -72.24,19.667 -128.567,55.847l0,-66.653c3.532,-65.964 27.118,-123.164 79,-168c41.909,-36.724 91.058,-56.812 148,-59l620,0c6.039,84.565 -21.567,120.085 -40,146c-16.521,23.227 -82.232,81.932 -167,81l-66,0l0,678l-247,-250l0,-428l-81,0Z" style="fill:#b91e39;"/></svg>